<svg width="24" height="25" viewBox="0 0 24 25" fill="none" xmlns="http://www.w3.org/2000/svg">
<path d="M12.6144 21.9165H3.99346C3.44463 21.9165 3 21.4716 3 20.923V4.90996C3 4.3612 3.4447 3.9165 3.99346 3.9165H20.0066C20.5552 3.9165 21 4.3612 21 4.90996V20.923C21 21.4717 20.5552 21.9165 20.0066 21.9165H15.4197V14.9459H17.7594L18.1098 12.2293H15.4197V10.495C15.4197 9.70849 15.6381 9.17251 16.766 9.17251L18.2045 9.17188V6.74216C17.9557 6.70906 17.1018 6.63509 16.1083 6.63509C14.0343 6.63509 12.6144 7.90108 12.6144 10.226V12.2293H10.2687V14.9459H12.6144V21.9165Z" fill="white"/>
</svg>
