<svg width="24" height="25" viewBox="0 0 24 25" fill="none" xmlns="http://www.w3.org/2000/svg">
<path fill-rule="evenodd" clip-rule="evenodd" d="M11.8078 14.5028C10.9134 14.5028 8.71698 14.5056 8.71698 14.5056V12.3274H14.2075C14.59 14.963 13.4364 18.9165 8.71698 18.9165C5.55957 18.9165 3 16.454 3 13.4165C3 10.3789 5.55957 7.9165 8.71698 7.9165C10.1985 7.9165 11.5484 8.45866 12.5641 9.34803C11.777 10.0631 11.5247 10.3356 11.3103 10.5672C11.1988 10.6877 11.0976 10.7971 10.9366 10.9519C10.3492 10.4845 9.70868 10.1492 8.71698 10.1492C6.8413 10.1492 5.37736 11.612 5.37736 13.4165C5.37736 15.221 6.8413 16.6838 8.71698 16.6838C10.5704 16.6838 11.3235 15.9149 11.8078 14.5028ZM19.0189 10.5304V12.4363H21V13.7977H19.0189V15.7581H17.6038V13.7977H15.566V12.4363H17.6038V10.5304H19.0189Z" fill="white"/>
</svg>
