<svg width="24" height="25" viewBox="0 0 24 25" fill="none" xmlns="http://www.w3.org/2000/svg">
<path fill-rule="evenodd" clip-rule="evenodd" d="M12 3.9165C9.55575 3.9165 9.24926 3.92686 8.28931 3.97066C7.33137 4.01436 6.67712 4.16651 6.10466 4.38901C5.51283 4.61898 5.01092 4.92672 4.51055 5.42705C4.01021 5.92742 3.70247 6.42933 3.47251 7.02116C3.25001 7.59363 3.09785 8.24787 3.05416 9.20582C3.01036 10.1658 3 10.4723 3 12.9165C3 15.3608 3.01036 15.6672 3.05416 16.6272C3.09785 17.5851 3.25001 18.2394 3.47251 18.8118C3.70247 19.4037 4.01021 19.9056 4.51055 20.406C5.01092 20.9063 5.51283 21.214 6.10466 21.444C6.67712 21.6665 7.33137 21.8187 8.28931 21.8623C9.24926 21.9061 9.55575 21.9165 12 21.9165C14.4443 21.9165 14.7507 21.9061 15.7107 21.8623C16.6686 21.8187 17.3229 21.6665 17.8953 21.444C18.4872 21.214 18.9891 20.9063 19.4895 20.406C19.9898 19.9056 20.2975 19.4037 20.5275 18.8118C20.75 18.2394 20.9021 17.5851 20.9458 16.6272C20.9896 15.6672 21 15.3608 21 12.9165C21 10.4723 20.9896 10.1658 20.9458 9.20582C20.9021 8.24787 20.75 7.59363 20.5275 7.02116C20.2975 6.42933 19.9898 5.92742 19.4895 5.42705C18.9891 4.92672 18.4872 4.61898 17.8953 4.38901C17.3229 4.16651 16.6686 4.01436 15.7107 3.97066C14.7507 3.92686 14.4443 3.9165 12 3.9165ZM12 5.53812C14.4031 5.53812 14.6878 5.5473 15.6368 5.5906C16.5143 5.63062 16.9908 5.77723 17.3079 5.90049C17.728 6.06375 18.0278 6.25878 18.3428 6.57374C18.6577 6.88866 18.8528 7.18846 19.016 7.60856C19.1393 7.9257 19.2859 8.40224 19.3259 9.27973C19.3692 10.2287 19.3784 10.5134 19.3784 12.9165C19.3784 15.3196 19.3692 15.6043 19.3259 16.5533C19.2859 17.4308 19.1393 17.9073 19.016 18.2244C18.8528 18.6445 18.6577 18.9444 18.3428 19.2593C18.0278 19.5742 17.728 19.7693 17.3079 19.9325C16.9908 20.0558 16.5143 20.2024 15.6368 20.2424C14.6879 20.2857 14.4033 20.2949 12 20.2949C9.59672 20.2949 9.31213 20.2857 8.36323 20.2424C7.48574 20.2024 7.00919 20.0558 6.69206 19.9325C6.27196 19.7693 5.97215 19.5742 5.65723 19.2593C5.34231 18.9444 5.14725 18.6445 4.98398 18.2244C4.86073 17.9073 4.71411 17.4308 4.6741 16.5533C4.6308 15.6043 4.62162 15.3196 4.62162 12.9165C4.62162 10.5134 4.6308 10.2287 4.6741 9.27973C4.71411 8.40224 4.86073 7.9257 4.98398 7.60856C5.14725 7.18846 5.34227 6.88866 5.65723 6.57374C5.97215 6.25878 6.27196 6.06375 6.69206 5.90049C7.00919 5.77723 7.48574 5.63062 8.36323 5.5906C9.31224 5.5473 9.5969 5.53812 12 5.53812ZM7.37838 12.9165C7.37838 10.364 9.44753 8.29489 12 8.29489C14.5525 8.29489 16.6216 10.364 16.6216 12.9165C16.6216 15.469 14.5525 17.5381 12 17.5381C9.44753 17.5381 7.37838 15.469 7.37838 12.9165ZM12 15.9165C10.3431 15.9165 9 14.5734 9 12.9165C9 11.2596 10.3431 9.9165 12 9.9165C13.6569 9.9165 15 11.2596 15 12.9165C15 14.5734 13.6569 15.9165 12 15.9165ZM16.8042 9.19228C17.4007 9.19228 17.8842 8.70877 17.8842 8.11229C17.8842 7.51582 17.4007 7.03227 16.8042 7.03227C16.2078 7.03227 15.7242 7.51582 15.7242 8.11229C15.7242 8.70877 16.2078 9.19228 16.8042 9.19228Z" fill="white"/>
</svg>
