<svg width="24" height="25" viewBox="0 0 24 25" fill="none" xmlns="http://www.w3.org/2000/svg">
<path fill-rule="evenodd" clip-rule="evenodd" d="M5.11877 8.68778H5.09337C3.82338 8.68778 3 7.85689 3 6.80368C3 5.72998 3.84772 4.9165 5.14311 4.9165C6.43744 4.9165 7.2333 5.72793 7.2587 6.8006C7.2587 7.85382 6.43744 8.68778 5.11877 8.68778ZM21 20.9165H17.0218V15.2919C17.0218 13.8196 16.3995 12.8146 15.031 12.8146C13.9844 12.8146 13.4023 13.4928 13.1313 14.1464C13.0419 14.353 13.0435 14.6311 13.0452 14.9177V14.9177C13.0454 14.9566 13.0456 14.9957 13.0456 15.0347V20.9165H9.10442C9.10442 20.9165 9.15522 10.953 9.10442 10.0473H13.0456V11.7532C13.2785 11.0073 14.5379 9.94282 16.5476 9.94282C19.041 9.94282 21 11.5062 21 14.8728V20.9165ZM6.96237 10.0473H3.45402V20.9165H6.96237V10.0473Z" fill="white"/>
</svg>
