<svg width="24" height="25" viewBox="0 0 24 25" fill="none" xmlns="http://www.w3.org/2000/svg">
<g id="round-phone-24px">
<g id="Rounded_1_">
<path id="Path" fill-rule="evenodd" clip-rule="evenodd" d="M19.23 16.1765L16.69 15.8865C16.08 15.8165 15.48 16.0265 15.05 16.4565L13.21 18.2965C10.38 16.8565 8.06004 14.5465 6.62004 11.7065L8.47004 9.85651C8.90004 9.42651 9.11004 8.82651 9.04004 8.21651L8.75004 5.69651C8.63004 4.68651 7.78004 3.92651 6.76004 3.92651H5.03004C3.90004 3.92651 2.96004 4.86651 3.03004 5.99651C3.56004 14.5365 10.39 21.3565 18.92 21.8865C20.05 21.9565 20.99 21.0165 20.99 19.8865V18.1565C21 17.1465 20.24 16.2965 19.23 16.1765Z" fill="white"/>
</g>
</g>
</svg>
