<svg width="24" height="25" viewBox="0 0 24 25" fill="none" xmlns="http://www.w3.org/2000/svg">
<path d="M12.0005 3.9165C7.03034 3.9165 3 7.94579 3 12.917C3 16.6013 5.21626 19.768 8.38825 21.1598C8.36285 20.5321 8.38402 19.7764 8.54384 19.0927C8.71741 18.3624 9.70171 14.1892 9.70171 14.1892C9.70171 14.1892 9.41489 13.6145 9.41489 12.7646C9.41489 11.4311 10.1886 10.4351 11.1506 10.4351C11.9688 10.4351 12.3646 11.05 12.3646 11.7867C12.3646 12.609 11.8397 13.8399 11.5698 14.9798C11.3443 15.9356 12.0482 16.7135 12.9901 16.7135C14.6952 16.7135 15.8435 14.5237 15.8435 11.9285C15.8435 9.95672 14.5153 8.48027 12.099 8.48027C9.36938 8.48027 7.66855 10.5156 7.66855 12.789C7.66855 13.5743 7.89928 14.1268 8.26125 14.5544C8.42847 14.7523 8.4507 14.8306 8.39037 15.0571C8.34803 15.2211 8.24854 15.6212 8.20727 15.7789C8.14694 16.0065 7.96278 16.089 7.75745 16.0043C6.49903 15.491 5.91374 14.1141 5.91374 12.5656C5.91374 10.0096 8.06968 6.94243 12.3456 6.94243C15.7821 6.94243 18.0439 9.4307 18.0439 12.0989C18.0439 15.6297 16.0817 18.2672 13.187 18.2672C12.2164 18.2672 11.302 17.7422 10.9887 17.1464C10.9887 17.1464 10.4659 19.2197 10.3558 19.6198C10.1653 20.313 9.79167 21.0073 9.44981 21.5471C10.2595 21.7863 11.1147 21.9165 12.0005 21.9165C16.9707 21.9165 21 17.8872 21 12.917C21 7.94579 16.9707 3.9165 12.0005 3.9165Z" fill="white"/>
</svg>
