<svg width="24" height="25" viewBox="0 0 24 25" fill="none" xmlns="http://www.w3.org/2000/svg">
<path fill-rule="evenodd" clip-rule="evenodd" d="M21 21.9165H17.5717C17.5717 13.8814 11.0352 7.34486 3.00019 7.34486V3.9165C12.9252 3.9165 21 11.9914 21 21.9165ZM3.00019 19.3451C3.00019 17.925 4.15154 16.7736 5.57159 16.7736C6.99165 16.7736 8.14299 17.925 8.14299 19.3451C8.14299 20.7651 6.99165 21.9165 5.57159 21.9165C4.15154 21.9165 3.00019 20.7651 3.00019 19.3451ZM11.5718 21.9165H15.0001C15.0001 15.2996 9.61686 9.91629 3 9.91629V13.3453C7.72623 13.3453 11.5718 17.1902 11.5718 21.9165Z" fill="white"/>
</svg>
