<svg width="24" height="25" viewBox="0 0 24 25" fill="none" xmlns="http://www.w3.org/2000/svg">
<path d="M21 7.69223C20.3386 7.99343 19.6265 8.19711 18.8796 8.28812C19.6424 7.82008 20.2277 7.07793 20.5034 6.19386C19.7892 6.62723 19 6.94251 18.1569 7.11152C17.4849 6.37588 16.5246 5.9165 15.4617 5.9165C13.4237 5.9165 11.7702 7.61206 11.7702 9.70307C11.7702 9.99993 11.8019 10.2881 11.8653 10.5655C8.79609 10.4073 6.07554 8.90134 4.25304 6.60773C3.93502 7.16894 3.7533 7.82008 3.7533 8.51347C3.7533 9.82658 4.40518 10.9858 5.3962 11.6651C4.79186 11.6467 4.22134 11.4745 3.72266 11.1928V11.2394C3.72266 13.0747 4.99577 14.6056 6.68621 14.9523C6.37665 15.0411 6.05018 15.0855 5.71315 15.0855C5.47544 15.0855 5.243 15.0628 5.01796 15.0183C5.48811 16.5221 6.85103 17.6175 8.46751 17.6467C7.20391 18.663 5.61067 19.2686 3.88114 19.2686C3.5832 19.2686 3.28843 19.2513 3 19.2166C4.63444 20.2892 6.57633 20.9165 8.66086 20.9165C15.4543 20.9165 19.168 15.1473 19.168 10.1429C19.168 9.97826 19.1648 9.81358 19.1585 9.65215C19.8801 9.11802 20.5066 8.45171 21 7.69223Z" fill="white"/>
</svg>
