<svg width="24" height="25" viewBox="0 0 24 25" fill="none" xmlns="http://www.w3.org/2000/svg">
<path fill-rule="evenodd" clip-rule="evenodd" d="M20.1045 7.88629C20.6439 8.44714 20.82 9.72074 20.82 9.72074C20.82 9.72074 21 11.2167 21 12.7121V14.1145C21 15.6105 20.82 17.1059 20.82 17.1059C20.82 17.1059 20.6439 18.3795 20.1045 18.9404C19.4878 19.6038 18.8039 19.6724 18.4174 19.7111C18.3749 19.7154 18.336 19.7193 18.3011 19.7236C15.7822 19.9107 12 19.9165 12 19.9165C12 19.9165 7.32 19.8726 5.88 19.7305C5.81177 19.7174 5.72907 19.7072 5.63541 19.6957C5.17928 19.6395 4.46335 19.5513 3.89494 18.9404C3.3555 18.3795 3.18 17.1059 3.18 17.1059C3.18 17.1059 3 15.6105 3 14.1145V12.7121C3 11.2167 3.18 9.72074 3.18 9.72074C3.18 9.72074 3.3555 8.44714 3.89494 7.88629C4.51305 7.22189 5.19754 7.15408 5.58411 7.11578C5.62602 7.11163 5.66443 7.10783 5.69887 7.10365C8.21775 6.9165 11.9961 6.9165 11.9961 6.9165H12.0039C12.0039 6.9165 15.7822 6.9165 18.3011 7.10365C18.3356 7.10783 18.374 7.11164 18.4159 7.1158C18.8022 7.1541 19.487 7.222 20.1045 7.88629ZM10.1409 10.6206L10.1415 15.8138L15.0043 13.2262L10.1409 10.6206Z" fill="white"/>
</svg>
